<?xml version="1.0" encoding="UTF-8"?>
<!DOCTYPE svg PUBLIC "-//W3C//DTD SVG 1.1//EN" "http://www.w3.org/Graphics/SVG/1.1/DTD/svg11.dtd">
<!-- Creator: CorelDRAW 2018 (64-Bit) -->
<svg xmlns="http://www.w3.org/2000/svg" xml:space="preserve" width="30mm" height="29.9882mm" version="1.1" style="shape-rendering:geometricPrecision; text-rendering:geometricPrecision; image-rendering:optimizeQuality; fill-rule:evenodd; clip-rule:evenodd"
viewBox="0 0 1270.13 1269.64"
 xmlns:xlink="http://www.w3.org/1999/xlink">
 <defs>
  <style type="text/css">
   <![CDATA[
    .fil0 {fill:#2565AF}
    .fil1 {fill:#FF3300}
    .fil2 {fill:white}
   ]]>
  </style>
 </defs>
 <g id="Layer_x0020_1">
  <metadata id="CorelCorpID_0Corel-Layer"/>
  <path class="fil0" d="M634.82 1269.64l0.5 0c350.17,0 634.32,-284.14 634.32,-634.32l0 -0.5c0,-350.68 -284.14,-634.82 -634.82,-634.82l0 0c-350.68,0 -634.82,284.14 -634.82,634.82l0 0.5c0.5,350.17 284.64,634.32 634.82,634.32z"/>
  <path class="fil1" d="M635.32 1269.64l0.5 0c350.17,0 634.32,-284.14 634.32,-634.32l0 -0.5c0,-350.68 -284.14,-634.82 -634.82,-634.82l0 0c-350.68,0 -634.82,284.14 -634.82,634.82l0 0.5c0,350.17 284.15,634.32 634.82,634.32z"/>
  <path id="facebook_3_" class="fil2" d="M694.85 1037.52l0 -351.68 118.06 0 17.51 -137.07 -135.57 0 0 -87.54c0,-39.52 11.01,-66.53 68.03,-66.53l72.54 0 0 -122.56c-12.51,-1.5 -55.53,-5.5 -105.55,-5.5 -104.55,0 -176.09,64.03 -176.09,181.09l0 101.05 -118.55 0 0 137.07 118.05 0 0 351.68 141.57 0z"/>
 </g>
</svg>
