<?xml version="1.0" encoding="UTF-8"?>
<!DOCTYPE svg PUBLIC "-//W3C//DTD SVG 1.1//EN" "http://www.w3.org/Graphics/SVG/1.1/DTD/svg11.dtd">
<!-- Creator: CorelDRAW 2018 (64-Bit) -->
<svg xmlns="http://www.w3.org/2000/svg" xml:space="preserve" width="30mm" height="30mm" version="1.1" style="shape-rendering:geometricPrecision; text-rendering:geometricPrecision; image-rendering:optimizeQuality; fill-rule:evenodd; clip-rule:evenodd"
viewBox="0 0 500.62 500.62"
 xmlns:xlink="http://www.w3.org/1999/xlink">
 <defs>
  <style type="text/css">
   <![CDATA[
    .fil0 {fill:#2565AF}
    .fil1 {fill:#FF3300}
    .fil2 {fill:white}
   ]]>
  </style>
 </defs>
 <g id="Layer_x0020_1">
  <metadata id="CorelCorpID_0Corel-Layer"/>
  <path class="fil0" d="M250.31 500.62l0.2 0c138.08,0 250.11,-112.04 250.11,-250.11l0 -0.2c0,-138.27 -112.04,-250.31 -250.31,-250.31l0 0c-138.27,0 -250.31,112.04 -250.31,250.31l0 0.2c0.2,138.08 112.04,250.11 250.31,250.11z"/>
  <path class="fil1" d="M250.31 500.62l0.2 0c138.08,0 250.11,-112.04 250.11,-250.11l0 -0.2c0,-138.27 -112.04,-250.31 -250.31,-250.31l0 0c-138.27,0 -250.31,112.04 -250.31,250.31l0 0.2c0.2,138.08 112.24,250.11 250.31,250.11z"/>
  <g>
   <path class="fil2" d="M250.31 145.18c34.32,0 38.27,0.2 51.88,0.79 12.43,0.59 19.33,2.56 23.87,4.34 5.92,2.37 10.26,5.13 14.79,9.67 4.54,4.54 7.3,8.68 9.67,14.79 1.78,4.54 3.94,11.24 4.34,23.87 0.59,13.61 0.79,17.56 0.79,51.88 0,34.32 -0.2,38.27 -0.79,51.88 -0.59,12.43 -2.56,19.33 -4.34,23.87 -2.37,5.92 -5.13,10.26 -9.67,14.79 -4.54,4.54 -8.68,7.3 -14.79,9.67 -4.54,1.78 -11.24,3.94 -23.87,4.34 -13.61,0.59 -17.56,0.79 -51.88,0.79 -34.32,0 -38.27,-0.2 -51.88,-0.79 -12.43,-0.59 -19.33,-2.56 -23.87,-4.34 -5.92,-2.37 -10.26,-5.13 -14.79,-9.67 -4.54,-4.54 -7.3,-8.68 -9.67,-14.79 -1.78,-4.54 -3.94,-11.24 -4.34,-23.87 -0.59,-13.61 -0.79,-17.56 -0.79,-51.88 0,-34.32 0.2,-38.27 0.79,-51.88 0.59,-12.43 2.56,-19.33 4.34,-23.87 2.37,-5.92 5.13,-10.26 9.67,-14.79 4.54,-4.54 8.68,-7.3 14.79,-9.67 4.54,-1.78 11.24,-3.94 23.87,-4.34 13.61,-0.79 17.75,-0.79 51.88,-0.79l0 0zm0 -23.28c-34.91,0 -39.25,0.2 -52.86,0.79 -13.61,0.59 -23.08,2.76 -31.17,5.92 -8.48,3.35 -15.58,7.69 -22.68,14.79 -7.1,7.1 -11.44,14.2 -14.79,22.68 -3.16,8.09 -5.33,17.56 -5.92,31.17 -0.59,13.61 -0.79,18.15 -0.79,52.86 0,34.91 0.2,39.25 0.79,52.86 0.59,13.61 2.76,23.08 5.92,31.17 3.35,8.48 7.69,15.58 14.79,22.68 7.1,7.1 14.2,11.44 22.68,14.79 8.09,3.16 17.56,5.33 31.17,5.92 13.61,0.59 18.15,0.79 52.86,0.79 34.91,0 39.25,-0.2 52.86,-0.79 13.61,-0.59 23.08,-2.76 31.17,-5.92 8.48,-3.35 15.58,-7.69 22.68,-14.79 7.1,-7.1 11.44,-14.2 14.79,-22.68 3.16,-8.09 5.33,-17.56 5.92,-31.17 0.59,-13.61 0.79,-18.15 0.79,-52.86 0,-34.91 -0.2,-39.25 -0.79,-52.86 -0.59,-13.61 -2.76,-23.08 -5.92,-31.17 -3.35,-8.48 -7.69,-15.58 -14.79,-22.68 -7.1,-7.1 -14.2,-11.44 -22.68,-14.79 -8.09,-3.16 -17.56,-5.33 -31.17,-5.92 -13.61,-0.59 -17.95,-0.79 -52.86,-0.79l0 0z"/>
  </g>
  <path class="fil2" d="M250.31 184.43c-36.49,0 -65.88,29.59 -65.88,65.88 0,36.49 29.59,65.88 65.88,65.88 36.49,0 65.88,-29.59 65.88,-65.88 0.2,-36.29 -29.39,-65.88 -65.88,-65.88zm0 108.69c-23.67,0 -42.8,-19.13 -42.8,-42.8 0,-23.67 19.13,-42.8 42.8,-42.8 23.67,0 42.8,19.13 42.8,42.8 0,23.67 -19.13,42.8 -42.8,42.8z"/>
  <circle class="fil2" cx="318.96" cy="181.87" r="15.39"/>
 </g>
</svg>
