<?xml version="1.0" encoding="UTF-8"?>
<!DOCTYPE svg PUBLIC "-//W3C//DTD SVG 1.1//EN" "http://www.w3.org/Graphics/SVG/1.1/DTD/svg11.dtd">
<!-- Creator: CorelDRAW 2018 (64-Bit) -->
<svg xmlns="http://www.w3.org/2000/svg" xml:space="preserve" width="30mm" height="29.9881mm" version="1.1" style="shape-rendering:geometricPrecision; text-rendering:geometricPrecision; image-rendering:optimizeQuality; fill-rule:evenodd; clip-rule:evenodd"
viewBox="0 0 1270.06 1269.55"
 xmlns:xlink="http://www.w3.org/1999/xlink">
 <defs>
  <style type="text/css">
   <![CDATA[
    .fil0 {fill:#2565AF}
    .fil1 {fill:#FF3300}
    .fil2 {fill:white}
   ]]>
  </style>
 </defs>
 <g id="Layer_x0020_1">
  <metadata id="CorelCorpID_0Corel-Layer"/>
  <path class="fil0" d="M635.03 0l0 0c-350.79,0 -635.03,284.24 -635.03,635.03l0 0c0,350.29 284.24,634.53 634.53,634.53l0.5 0c350.29,0 634.53,-284.24 634.53,-634.53l0 0c0.5,-350.79 -283.73,-635.03 -634.53,-635.03z"/>
  <path class="fil1" d="M635.53 0l0 0c-350.79,0 -635.03,284.24 -635.03,635.03l0 0c0,350.29 284.24,634.53 634.53,634.53l0.5 0c350.29,0 634.53,-284.24 634.53,-634.53l0 0c0,-350.79 -284.24,-635.03 -634.53,-635.03z"/>
  <path id="telegram_3_" class="fil2" d="M900.75 374.81l-603 228.19c-33.03,9.51 -32.03,42.03 -7.51,50.04l151.12 47.04 58.05 177.15c7,19.51 13.01,26.52 25.02,27.02 12.51,0 17.51,-4.51 30.53,-16.01 15.51,-14.51 38.53,-37.03 75.56,-73.06l157.13 116.1c29.02,16.01 50.04,7.51 57.05,-27.02l98.58 -487.4c10.01,-42.03 -15.01,-54.54 -42.53,-42.03zm-435.86 314.76l343.29 -215.68c17.01,-11.51 22.02,1.5 14.51,10.01l-285.24 256.21 -14.51 128.1 -58.05 -178.65z"/>
 </g>
</svg>
