<?xml version="1.0" encoding="UTF-8"?>
<!DOCTYPE svg PUBLIC "-//W3C//DTD SVG 1.1//EN" "http://www.w3.org/Graphics/SVG/1.1/DTD/svg11.dtd">
<!-- Creator: CorelDRAW 2018 (64-Bit) -->
<svg xmlns="http://www.w3.org/2000/svg" xml:space="preserve" width="26.2746mm" height="26.2746mm" version="1.1" style="shape-rendering:geometricPrecision; text-rendering:geometricPrecision; image-rendering:optimizeQuality; fill-rule:evenodd; clip-rule:evenodd"
viewBox="0 0 5854.73 5854.73"
 xmlns:xlink="http://www.w3.org/1999/xlink">
 <defs>
  <style type="text/css">
   <![CDATA[
    .fil0 {fill:#2565AF}
    .fil1 {fill:#FF3300}
    .fil2 {fill:white}
   ]]>
  </style>
 </defs>
 <g id="Layer_x0020_1">
  <metadata id="CorelCorpID_0Corel-Layer"/>
  <path class="fil0" d="M2927.36 5854.73l2.32 0c1614.77,0 2925.05,-1310.28 2925.05,-2925.05l0 -2.32c0,-1617.09 -1310.28,-2927.36 -2927.36,-2927.36l0 0c-1617.09,0 -2927.36,1310.28 -2927.36,2927.36l0 2.32c2.32,1614.77 1310.28,2925.05 2927.36,2925.05z"/>
  <path class="fil1" d="M2927.36 5854.73l2.32 0c1614.77,0 2925.05,-1310.28 2925.05,-2925.05l0 -2.32c0,-1617.09 -1310.28,-2927.36 -2927.36,-2927.36l0 0c-1617.09,0 -2927.36,1310.28 -2927.36,2927.36l0 2.32c2.32,1614.77 1312.59,2925.05 2927.36,2925.05z"/>
  <path id="twitter_3_" class="fil2" d="M4639.04 1960.8c-117.65,53.06 -244.53,87.66 -378.32,103.82 136.1,-80.73 239.92,-212.22 290.66,-364.48 -126.88,76.12 -269.89,131.49 -419.85,159.17 -119.95,-129.17 -292.97,-207.61 -482.13,-207.61 -364.48,0 -659.75,295.27 -659.75,659.75 0,50.76 6.93,101.5 16.16,149.94 -549.03,-27.68 -1035.77,-290.66 -1361.04,-689.74 -57.67,96.89 -89.96,209.93 -89.96,332.19 0,228.38 117.65,431.37 292.97,549.03 -108.43,-2.32 -209.93,-32.29 -299.88,-83.05 0,2.32 0,4.61 0,9.23 0,320.65 228.38,585.93 530.58,648.21 -55.37,16.16 -113.04,23.06 -173,23.06 -41.51,0 -83.05,-4.61 -124.56,-11.54 83.05,262.98 327.58,452.14 615.92,459.05 -226.06,177.62 -509.81,283.75 -818.92,283.75 -53.06,0 -106.11,-2.32 -156.87,-9.23 292.97,186.86 638.98,297.59 1012.69,297.59 1215.71,0 1877.75,-1005.78 1877.75,-1877.75 0,-27.68 0,-57.67 -2.32,-85.34 129.17,-96.91 239.9,-212.24 329.88,-346.03z"/>
 </g>
</svg>
