<?xml version="1.0" encoding="UTF-8"?>
<!DOCTYPE svg PUBLIC "-//W3C//DTD SVG 1.1//EN" "http://www.w3.org/Graphics/SVG/1.1/DTD/svg11.dtd">
<!-- Creator: CorelDRAW 2018 (64-Bit) -->
<svg xmlns="http://www.w3.org/2000/svg" xml:space="preserve" width="30mm" height="30.0001mm" version="1.1" style="shape-rendering:geometricPrecision; text-rendering:geometricPrecision; image-rendering:optimizeQuality; fill-rule:evenodd; clip-rule:evenodd"
viewBox="0 0 578.97 578.97"
 xmlns:xlink="http://www.w3.org/1999/xlink">
 <defs>
  <style type="text/css">
   <![CDATA[
    .fil0 {fill:#2565AF}
    .fil1 {fill:#FF3300}
    .fil2 {fill:white}
   ]]>
  </style>
 </defs>
 <g id="Layer_x0020_1">
  <metadata id="CorelCorpID_0Corel-Layer"/>
  <path class="fil0" d="M289.48 578.97l0.23 0c159.68,0 289.25,-129.57 289.25,-289.25l0 -0.23c0,-159.91 -129.57,-289.48 -289.48,-289.48l0 0c-159.91,0 -289.48,129.57 -289.48,289.48l0 0.23c0.23,159.68 129.57,289.25 289.48,289.25z"/>
  <path class="fil1" d="M289.48 578.97l0.23 0c159.68,0 289.25,-129.57 289.25,-289.25l0 -0.23c0,-159.91 -129.57,-289.48 -289.48,-289.48l0 0c-159.91,0 -289.48,129.57 -289.48,289.48l0 0.23c0.23,159.68 129.8,289.25 289.48,289.25z"/>
  <path id="vk5Falt_3_" class="fil2" d="M278.76 403.54l21.9 0c0,0 6.61,-0.69 10.04,-4.33 3.19,-3.42 2.97,-9.58 2.97,-9.58 0,0 -0.46,-29.43 13.23,-33.76 13.46,-4.33 30.8,28.52 49.05,41.06 13.92,9.58 24.41,7.53 24.41,7.53l49.05 -0.69c0,0 25.55,-1.6 13.46,-21.67 -0.91,-1.6 -7.07,-14.83 -36.5,-42.2 -30.8,-28.52 -26.69,-23.95 10.49,-73.23 22.58,-30.11 31.48,-48.36 28.74,-56.35 -2.74,-7.53 -19.16,-5.48 -19.16,-5.48l-55.2 0.46c0,0 -4.11,-0.46 -7.07,1.37 -2.97,1.82 -4.79,5.93 -4.79,5.93 0,0 -8.67,23.27 -20.3,43.11 -24.64,41.75 -34.45,44.03 -38.32,41.29 -9.35,-5.93 -7.07,-24.18 -7.07,-37.18 0,-40.38 6.16,-57.26 -11.86,-61.59 -5.93,-1.37 -10.49,-2.51 -25.78,-2.51 -19.62,-0.23 -36.27,0 -45.85,4.79 -6.39,2.97 -11.18,10.04 -8.21,10.27 3.65,0.46 11.86,2.28 16.2,8.21 5.7,7.76 5.48,24.86 5.48,24.86 0,0 3.19,47.68 -7.53,53.61 -7.53,4.11 -17.56,-4.33 -39.47,-42.2 -11.18,-19.39 -19.62,-40.83 -19.62,-40.83 0,0 -1.6,-4.11 -4.56,-6.16 -3.42,-2.51 -8.44,-3.42 -8.44,-3.42l-52.47 0.23c0,0 -7.98,0.23 -10.72,3.65 -2.51,2.97 -0.23,9.35 -0.23,9.35 0,0 41.06,96.04 87.6,144.4 42.2,43.8 90.56,41.07 90.56,41.07l0 0 0 0z"/>
 </g>
</svg>
