<?xml version="1.0" encoding="UTF-8"?>
<!DOCTYPE svg PUBLIC "-//W3C//DTD SVG 1.1//EN" "http://www.w3.org/Graphics/SVG/1.1/DTD/svg11.dtd">
<!-- Creator: CorelDRAW 2018 (64-Bit) -->
<svg xmlns="http://www.w3.org/2000/svg" xml:space="preserve" width="30mm" height="29.9882mm" version="1.1" style="shape-rendering:geometricPrecision; text-rendering:geometricPrecision; image-rendering:optimizeQuality; fill-rule:evenodd; clip-rule:evenodd"
viewBox="0 0 931.97 931.6"
 xmlns:xlink="http://www.w3.org/1999/xlink">
 <defs>
  <style type="text/css">
   <![CDATA[
    .fil0 {fill:#2565AF}
    .fil1 {fill:#FF3300}
    .fil2 {fill:white}
   ]]>
  </style>
 </defs>
 <g id="Layer_x0020_1">
  <metadata id="CorelCorpID_0Corel-Layer"/>
  <path class="fil0" d="M465.8 931.6l0.37 0c256.94,0 465.43,-208.49 465.43,-465.43l0 -0.37c0,-257.31 -208.49,-465.8 -465.8,-465.8l0 0c-257.31,0 -465.8,208.49 -465.8,465.8l0 0.37c0.37,256.94 208.86,465.43 465.8,465.43z"/>
  <path class="fil1" d="M466.17 931.6l0.37 0c256.94,0 465.43,-208.49 465.43,-465.43l0 -0.37c0,-257.31 -208.49,-465.8 -465.8,-465.8l0 0c-257.31,0 -465.8,208.49 -465.8,465.8l0 0.37c0,256.94 208.49,465.43 465.8,465.43z"/>
  <path id="youtube5Falt_3_" class="fil2" d="M717.97 348.71c-6.24,-27.16 -28.63,-47.35 -55.43,-50.29 -63.5,-6.97 -128.1,-6.97 -192.34,-6.97 -64.24,0 -128.47,0 -192.34,6.97 -26.79,2.94 -49.19,23.12 -55.43,50.29 -8.81,38.91 -9.18,81.49 -9.18,121.5 0,40.01 0,82.59 8.81,121.5 6.24,27.16 28.63,47.35 55.43,50.29 63.5,6.97 128.1,6.97 192.34,6.97 64.24,0 128.47,0 192.34,-6.97 26.79,-2.94 49.19,-23.12 55.43,-50.29 8.81,-38.91 8.81,-81.49 8.81,-121.5 0.73,-40.38 0.73,-82.59 -8.45,-121.5zm-301.36 191.24l0 -142.42 135.81 71.21 -135.81 71.21z"/>
 </g>
</svg>
